<svg xmlns="http://www.w3.org/2000/svg" width="93.614" height="17.998" viewBox="0 0 93.614 17.998">
    <g data-name="그룹 38532">
        <g data-name="그룹 38539">
            <g data-name="그룹 38538">
                <path data-name="패스 15553" d="m162.9 448.063-3.06 3.06h-7.879v-.011l-.277-.011-.267-.043-.256-.075-.256-.1-.245-.128-.224-.149-.213-.171-.192-.192-.171-.213-.149-.224-.128-.245-.1-.256-.075-.256-.043-.267-.011-.277h-.011v-12.767h.011l.011-.277.043-.267.075-.256.1-.256.128-.245.149-.224.171-.213.192-.192.213-.171.224-.149.245-.128.256-.1.256-.075.267-.043.277-.011v-.011h.384v15h6.255l1.3-1.3v-5.235l-2.463 2.474v-4.254l2.463-2.484v-2.7l.011-.2.043-.2.075-.192.085-.181.117-.16.139-.149.16-.128.181-.107.181-.085.2-.053.192-.032h.213l.192.032.2.053.181.085.181.107.16.128.139.149.117.16.085.181.075.192.043.2.011.2h.011v13.434z" transform="translate(-149.345 -433.126)" style="fill:#0176f9"/>
                <path data-name="패스 15554" d="m1092.479 449.311-.1.256-.128.245-.149.224-.171.213-.192.192-.213.171-.224.149-.245.128-.256.1-.256.075-.266.043-.277.011v.011h-.384v-12.8l-3.423 5.022-.021-.011-.171.235-.192.213-.224.192-.224.181-.256.149-.256.139-.277.107-.277.075-.288.053-.288.032h-.3l-.288-.032-.288-.053-.277-.075-.277-.107-.256-.139-.256-.149-.224-.181-.224-.192-.192-.213-.169-.233-.012.009-3.423-5.022v12.795h-.384v-.011l-.277-.011-.267-.043-.256-.075-.256-.1-.245-.128-.224-.149-.213-.171-.192-.192-.171-.213-.149-.224-.128-.245-.1-.256-.074-.256-.043-.267-.01-.277h-.011v-15.38h1.407v.011l.309.011.3.053.3.064.288.107.277.128.266.16.245.181.235.2.2.224.181.245h.011l5.011 7.346 5.022-7.346h.011l.181-.245.2-.224.235-.2.245-.181.267-.16.277-.128.288-.107.3-.064.3-.053.309-.011v-.011h1.407v15.386h-.011l-.011.277-.042.267z" transform="translate(-1033.442 -433.126)" style="fill:#0176f9"/>
                <path data-name="패스 15555" d="m927.4 449.311-.1.256-.128.245-.149.224-.171.213-.192.192-.213.171-.224.149-.245.128-.256.1-.256.075-.267.043-.277.011v.011h-.384v-15.391h.011l.011-.277.043-.267.075-.256.1-.256.128-.245.149-.224.171-.213.192-.192.213-.171.224-.149.245-.128.256-.1.256-.075.267-.043.277-.011v-.011h.384v15.386h-.011l-.011.277-.043.267z" transform="translate(-890.106 -433.126)" style="fill:#0176f9"/>
                <path data-name="패스 15556" d="m1952.379 450.442-.192-.192-.17-.213-.149-.224-.128-.245-.1-.256-.075-.256-.043-.267-.011-.277h-.01v-12.774h.01l.011-.277.043-.267.075-.256.1-.256.128-.245.149-.224.17-.213.192-.192.213-.171.224-.149.245-.128.256-.1.256-.075.266-.043.277-.011v-.011H1962l3.06 3.06v12.326h-.01l-.011.277-.043.267-.075.256-.1.256-.128.245-.149.224-.17.213-.192.192-.213.171-.224.149-.245.128-.256.1-.256.075-.266.043-.278.011v.011h-.384v-5.832h-7.56v5.832h-.384v-.011l-.277-.011-.266-.043-.256-.075-.256-.1-.245-.128-.224-.149zm9.681-8.146v-4.862l-1.312-1.3h-6.248v6.166z" transform="translate(-1871.442 -433.126)" style="fill:#0176f9"/>
                <path data-name="패스 15557" d="m549.814 450.249-.192.192-.213.171-.224.149-.245.128-.256.1-.256.075-.267.043-.277.011v.011h-7.879l-3.06-3.06v-3h.16v.011l.288.021.288.043.288.085.267.107.256.139.234.171.224.192 2.292 2.292h6.258v-4.5h-7.943v-.011l-.277-.011-.267-.043-.256-.075-.256-.1-.245-.128-.224-.149-.213-.171-.192-.192-.171-.213-.149-.224-.128-.245-.1-.256-.075-.256-.043-.267-.011-.277h-.011v-5.278h.011l.011-.277.043-.267.075-.256.1-.256.128-.245.149-.224.171-.213.192-.192.213-.171.224-.149.245-.128.256-.1.256-.075.267-.043.277-.011v-.011h8.327v.011l.277.011.267.043.256.075.256.1.245.128.224.149.213.171.192.192.17.213.149.224.128.245.1.256.075.256.043.267.011.277h.011v.832h-.011l-.011.277-.043.267-.075.256-.1.256-.128.245-.149.224-.17.213-.192.192-.213.171-.224.149-.245.128-.256.1-.256.075-.267.043-.277.011v.011h-.384v-3.049h-7.56v4.5h7.943l.277.011.267.043.256.075.256.1.245.128.224.149.213.171.192.192.17.213.149.224.128.245.1.256.075.256.043.267.011.277h.011v5.278h-.011l-.011.277-.043.267-.075.256-.1.256-.128.245-.149.224z" transform="translate(-519.726 -433.126)" style="fill:#0176f9"/>
                <path data-name="패스 15558" d="m1577.457 448.063-3.06 3.06h-7.879v-.011l-.277-.011-.267-.043-.256-.075-.256-.1-.245-.128-.224-.149-.213-.171-.192-.192-.171-.213-.149-.224-.128-.245-.1-.256-.075-.256-.043-.267-.011-.277h-.011v-3.444h.384v.011l.277.011.266.043.256.075.256.1.245.128.224.149.213.171.192.192.171.213.149.224.128.245.1.256.075.256.043.267.01.277h.011v.448h6.259l1.3-1.3v-3.2h-7.943v-.011l-.277-.011-.267-.043-.256-.075-.256-.1-.245-.128-.224-.149-.213-.171-.192-.192-.171-.213-.149-.224-.128-.245-.1-.256-.075-.256-.043-.267-.011-.277h-.011v-5.278h.011l.011-.277.043-.267.075-.256.1-.256.128-.245.149-.224.171-.213.192-.192.213-.171.224-.149.245-.128.256-.1.256-.075.267-.043.277-.011v-.011h8.327v.011l.277.011.267.043.256.075.256.1.245.128.224.149.213.171.192.192.171.213.149.224.128.245.1.256.075.256.042.267.011.277h.011v.832h-.011l-.011.277-.042.267-.075.256-.1.256-.128.245-.149.224-.171.213-.192.192-.213.171-.224.149-.245.128-.256.1-.256.075-.267.043-.277.011v.011h-.384v-3.049h-7.56v4.5h7.943l.277.011.267.043.256.075.256.1.245.128.224.149.213.171.192.192.171.213.149.224.128.245.1.256.075.256.042.267.011.277h.011v4.83z" transform="translate(-1501.062 -433.126)" style="fill:#0176f9"/>
            </g>
        </g>
    </g>
</svg>
