<?xml version="1.0" encoding="UTF-8"?>
<svg id="_레이어_2" data-name="레이어 2" xmlns="http://www.w3.org/2000/svg" viewBox="0 0 739.59 146.09">
  <defs>
    <style>
      .cls-1 {
        fill: #4f525b;
      }

      .cls-1, .cls-2 {
        stroke-width: 0px;
      }

      .cls-2 {
        fill: #fdd000;
      }
    </style>
  </defs>
  <g id="_레이어_1-2" data-name="레이어 1">
    <g>
      <path class="cls-1" d="m31.03,95.46h39.31v22.9H0v-22.09l37.69-45.64H.32v-22.9h69.2v22.09l-38.5,45.64Z"/>
      <rect class="cls-2" x="84.2" y="27.72" width="27.78" height="90.64"/>
      <path class="cls-1" d="m297.99,48.35c3.84-7.04,9.2-12.45,16.08-16.24,6.88-3.79,14.75-5.68,23.63-5.68,11.37,0,20.87,2.98,28.51,8.93,7.63,5.96,12.64,14.35,15.03,25.18h-29.56c-2.49-6.93-7.31-10.4-14.46-10.4-5.09,0-9.15,1.98-12.18,5.93-3.03,3.95-4.55,9.61-4.55,16.98s1.52,13.02,4.55,16.97c3.03,3.95,7.09,5.93,12.18,5.93,7.15,0,11.96-3.46,14.46-10.4h29.56c-2.38,10.61-7.42,18.95-15.11,25.02-7.69,6.07-17.17,9.1-28.43,9.1-8.88,0-16.76-1.89-23.63-5.68-6.88-3.79-12.24-9.2-16.08-16.24-3.84-7.04-5.77-15.27-5.77-24.69s1.92-17.65,5.77-24.69Z"/>
      <path class="cls-1" d="m400.38,48.35c3.52-7.04,8.31-12.45,14.38-16.24,6.06-3.79,12.83-5.68,20.3-5.68,6.39,0,11.99,1.3,16.81,3.9,4.82,2.6,8.53,6.01,11.13,10.23v-12.83h27.78v90.64h-27.78v-12.83c-2.71,4.22-6.47,7.64-11.29,10.23-4.82,2.6-10.42,3.9-16.81,3.9-7.37,0-14.08-1.92-20.14-5.77-6.07-3.84-10.86-9.31-14.38-16.41-3.52-7.09-5.28-15.29-5.28-24.61s1.76-17.49,5.28-24.53Zm56.85,8.28c-3.85-4-8.53-6.01-14.05-6.01s-10.21,1.98-14.05,5.93c-3.85,3.95-5.77,9.4-5.77,16.32s1.92,12.43,5.77,16.49c3.84,4.06,8.53,6.09,14.05,6.09s10.21-2,14.05-6.01c3.84-4,5.77-9.47,5.77-16.41s-1.92-12.4-5.77-16.41Z"/>
      <path class="cls-1" d="m544.6,31.05c4.87-2.87,10.29-4.3,16.24-4.3v29.4h-7.63c-6.93,0-12.13,1.49-15.59,4.47-3.47,2.98-5.2,8.2-5.2,15.67v42.07h-27.78V27.72h27.78v15.11c3.25-4.98,7.31-8.91,12.18-11.78Z"/>
      <path class="cls-1" d="m614.66,31.05c4.87-2.87,10.29-4.3,16.24-4.3v29.4h-7.64c-6.93,0-12.13,1.49-15.59,4.47-3.47,2.98-5.2,8.2-5.2,15.67v42.07h-27.78V27.72h27.78v15.11c3.25-4.98,7.31-8.91,12.18-11.78Z"/>
      <path class="cls-1" d="m739.59,27.72l-50.12,118.36h-29.89l14.58-32.11-36.33-86.25h31.03l20.41,55.39,20.27-55.39h30.05Z"/>
      <path class="cls-2" d="m268.37,36.98c-6.66-6.82-15.62-10.23-26.88-10.23-6.39,0-12.29,1.57-17.71,4.71-5.42,3.14-9.69,7.2-12.83,12.18-3.03-5.41-7.23-9.58-12.59-12.51-5.36-2.92-11.45-4.39-18.27-4.39-5.74,0-10.88,1.11-15.43,3.33-4.55,2.22-8.23,5.23-11.05,9.02v-11.37h-.05s-27.72,27.72-27.72,27.72v62.91h27.78v-49.22c0-5.85,1.54-10.37,4.63-13.56,3.09-3.19,7.33-4.79,12.75-4.79s9.67,1.6,12.75,4.79c3.09,3.2,4.63,7.72,4.63,13.56v49.22h27.61v-49.22c0-5.85,1.54-10.37,4.63-13.56,3.09-3.19,7.33-4.79,12.75-4.79s9.66,1.6,12.75,4.79c3.09,3.2,4.63,7.72,4.63,13.56v49.22h27.61v-52.95c0-12.13-3.33-21.6-9.99-28.43Z"/>
      <polygon class="cls-1" points="125.84 0 125.84 27.72 153.56 0 125.84 0"/>
      <polygon class="cls-2" points="739.54 146.09 739.54 118.36 711.82 146.09 739.54 146.09"/>
    </g>
  </g>
</svg>